#!OML:ASF H:\Terrain\Patient Classification 1\Walking\steve\steve.ASF
:FULLY-SPECIFIED
:DEGREES
294
root 9.89598 16.783 28.7497 5.1661 -7.51913 3.06209
lowerback -3.31757 2.59732 -4.73246
upperback -1.37542 3.61032 -1.06394
thorax 0.219362 1.81916 1.66997
lowerneck -11.9771 -0.270898 -4.03206
upperneck 12.3939 0.123467 1.63657
head 5.70962 -0.00714869 1.18405
rclavicle -7.83646e-015 5.76476e-015
rhumerus -37.234 -7.2057 -86.1394
rradius 32.7611
rwrist -13.4338
rhand -18.9389 -37.4607
rfingers 7.12502
rthumb 7.36411 -67.3126
lclavicle -7.83646e-015 5.76476e-015
lhumerus -31.9729 15.861 79.6186
lradius 18.9246
lwrist 1.46159
lhand -21.0475 -11.8054
lfingers 7.12502
lthumb 5.32852 18.1076
rfemur -29.0162 2.65542 18.4924
rtibia 69.2069
rfoot -12.7626 1.13217
rtoes -8.93254
lfemur -16.7222 1.28107 -27.9405
ltibia 29.6145
lfoot -18.0044 -1.32951
ltoes 0.301193
295
root 9.90008 16.7632 28.9436 5.04606 -7.15252 3.39577
lowerback -4.8748 2.34591 -4.88013
upperback -0.0177351 3.43305 -1.2171
thorax 2.50258 1.65657 1.70902
lowerneck -13.2508 -0.349972 -3.73591
upperneck 11.8691 0.0335432 1.50529
head 5.76167 -0.0387559 1.08644
rclavicle -4.78885e-014 2.08724e-015
rhumerus -35.7103 -8.41541 -86.0199
rradius 30.6961
rwrist -11.7494
rhand -18.2779 -37.8414
rfingers 7.12502
rthumb 8.00214 -67.6699
lclavicle -4.78885e-014 2.08724e-015
lhumerus -28.0589 13.5938 81.6454
lradius 20.1158
lwrist 4.05527
lhand -21.2431 -11.5768
lfingers 7.12502
lthumb 5.13964 18.3408
rfemur -30.3167 2.24028 18.4426
rtibia 68.2782
rfoot -14.6033 0.933356
rtoes -13.5644
lfemur -15.8176 1.54469 -28.4177
ltibia 29.5403
lfoot -18.3849 -2.03902
ltoes 1.1867
296
root 9.90488 16.7578 29.1385 5.10997 -6.85262 3.46573
lowerback -2.06296 2.19502 -5.35308
upperback -2.158 2.97778 -1.04161
thorax -1.28361 1.55498 1.94387
lowerneck -11.6441 -0.121641 -3.45235
upperneck 13.4758 0.281327 1.14754
head 5.99129 0.049691 0.952352
rclavicle 1.93481e-014 7.85199e-015
rhumerus -40.0944 -8.89372 -84.8517
rradius 29.4491
rwrist -10.0041
rhand -16.983 -38.1644
rfingers 7.12502
rthumb 9.25171 -67.9414
lclavicle 1.93481e-014 7.85199e-015
lhumerus -30.0566 10.3226 82.4955
lradius 21.9587
lwrist 7.02188
lhand -21.416 -11.5537
lfingers 7.12502
lthumb 4.97266 18.368
rfemur -31.6296 1.65508 18.7168
rtibia 66.9784
rfoot -15.6874 0.424679
rtoes -18.7463
lfemur -14.959 1.78726 -28.5821
ltibia 29.2609
lfoot -18.8472 -2.74347
ltoes 2.64019
297
root 9.91025 16.7589 29.342 5.12528 -6.57938 3.46642
lowerback -2.33416 2.08524 -5.30538
upperback -1.89447 2.85944 -1.03278
thorax -0.849009 1.48071 1.94526
lowerneck -11.9267 -0.299846 -3.98593
upperneck 13.4563 0.0240411 1.94702
head 6.03835 -0.0388391 1.27202
rclavicle -1.53724e-014 -9.54166e-015
rhumerus -40.6504 -10.4679 -83.8753
rradius 27.7647
rwrist -7.75464
rhand -16.3231 -38.4451
rfingers 7.12502
rthumb 9.88849 -68.1929
lclavicle -1.53724e-014 -9.54166e-015
lhumerus -28.0269 8.16686 83.6221
lradius 23.2564
lwrist 8.7676
lhand -21.0575 -11.1619
lfingers 7.12502
lthumb 5.31879 18.7514
rfemur -32.7134 1.3389 19.0225
rtibia 65.3653
rfoot -16.6996 -0.165245
rtoes -20.7347
lfemur -13.9067 1.8846 -28.6638
ltibia 28.8169
lfoot -19.3352 -3.03021
ltoes 2.38288
298
root 9.91789 16.7645 29.548 5.01018 -6.14788 3.70888
lowerback -0.927866 1.89299 -5.70462
upperback -2.80599 2.47329 -0.977696
thorax -2.57399 1.35225 2.14632
lowerneck -11.1234 -0.153875 -3.66017
upperneck 14.1532 0.172907 1.66752
head 6.11737 0.0198932 1.14455
rclavicle -1.33341e-014 -1.17283e-014
rhumerus -43.234 -11.3984 -82.5164
rradius 26.3161
rwrist -5.69524
rhand -16.6417 -38.5684
rfingers 7.12502
rthumb 9.58103 -68.3305
lclavicle -1.33341e-014 -1.17283e-014
lhumerus -28.1511 6.48536 84.1466
lradius 24.7828
lwrist 9.81975
lhand -20.7955 -10.7046
lfingers 7.12502
lthumb 5.57177 19.2022
rfemur -33.5172 0.972612 19.0007
rtibia 63.5033
rfoot -17.8091 -0.698745
rtoes -19.8968
lfemur -12.7073 2.14935 -29.0076
ltibia 28.2946
lfoot -19.4193 -3.34695
ltoes 0.0964569
299
root 9.91834 16.7588 29.7608 4.89738 -5.82889 3.97801
lowerback -1.53073 1.77156 -5.86512
upperback -2.23603 2.37618 -1.11176
thorax -1.6385 1.27139 2.13515
lowerneck -11.526 -0.168692 -3.39533
upperneck 13.8938 0.130297 1.60913
head 6.10554 0.0118947 1.0785
rclavicle -4.25861e-014 -1.87852e-014
rhumerus -43.2585 -13.2259 -81.4226
rradius 24.2637
rwrist -3.14201
rhand -16.5179 -37.956
rfingers 7.12502
rthumb 9.70052 -67.7126
lclavicle -4.25861e-014 -1.87852e-014
lhumerus -25.6464 4.45185 84.8751
lradius 25.7054
lwrist 11.348
lhand -21.0527 -10.7822
lfingers 7.12502
lthumb 5.32348 19.131
rfemur -34.2557 0.70944 18.9505
rtibia 61.461
rfoot -18.3582 -1.08351
rtoes -17.6638
lfemur -11.4468 2.70197 -29.3301
ltibia 27.6763
lfoot -19.254 -4.28755
ltoes 1.65377
